<svg xmlns="http://www.w3.org/2000/svg" width="400" height="300" viewBox="0 0 400 300">
  <defs>
    <linearGradient id="mountain-gradient" x1="0%" y1="0%" x2="0%" y2="100%">
      <stop offset="0%" style="stop-color:#667eea;stop-opacity:1" />
      <stop offset="100%" style="stop-color:#764ba2;stop-opacity:1" />
    </linearGradient>
    <linearGradient id="sky-gradient" x1="0%" y1="0%" x2="0%" y2="100%">
      <stop offset="0%" style="stop-color:#a8edea;stop-opacity:1" />
      <stop offset="100%" style="stop-color:#fed6e3;stop-opacity:1" />
    </linearGradient>
  </defs>

  <!-- Sky background -->
  <rect width="400" height="300" fill="url(#sky-gradient)"/>

  <!-- Mountains -->
  <path d="M0,300 L0,200 L50,150 L100,180 L150,120 L200,160 L250,100 L300,140 L350,80 L400,120 L400,300 Z"
        fill="url(#mountain-gradient)" opacity="0.8"/>

  <!-- Second mountain range -->
  <path d="M0,300 L0,220 L30,190 L60,210 L90,170 L120,200 L150,160 L180,190 L210,150 L240,180 L270,140 L300,170 L330,130 L360,160 L390,120 L400,140 L400,300 Z"
        fill="url(#mountain-gradient)" opacity="0.6"/>

  <!-- Sun -->
  <circle cx="320" cy="80" r="25" fill="#ffd700" opacity="0.8"/>

  <!-- Clouds -->
  <ellipse cx="100" cy="60" rx="30" ry="15" fill="white" opacity="0.7"/>
  <ellipse cx="130" cy="60" rx="25" ry="12" fill="white" opacity="0.7"/>
  <ellipse cx="160" cy="60" rx="20" ry="10" fill="white" opacity="0.7"/>

  <ellipse cx="250" cy="40" rx="20" ry="10" fill="white" opacity="0.6"/>
  <ellipse cx="270" cy="40" rx="15" ry="8" fill="white" opacity="0.6"/>

  <!-- Ground -->
  <rect x="0" y="280" width="400" height="20" fill="#8B4513" opacity="0.3"/>
</svg>
